<svg version="1.2" xmlns="http://www.w3.org/2000/svg" viewBox="0 0 352 512" width="352" height="512">
	<title>close-icon</title>
	<style>
		.s0 { fill: #e7e7eb } 
	</style>
	<path id="Layer" class="s0" d="m242.7 256l100.1-100.1c12.3-12.3 12.3-32.2 0-44.4l-22.3-22.3c-12.2-12.3-32.1-12.3-44.4 0l-100.1 100.1-100.1-100.1c-12.2-12.3-32.2-12.3-44.4 0l-22.3 22.2c-12.3 12.3-12.3 32.2 0 44.5l100.1 100.1-100.1 100.1c-12.3 12.2-12.3 32.2 0 44.5l22.3 22.2c12.2 12.3 32.2 12.3 44.4 0l100.1-100.1 100.1 100.1c12.2 12.3 32.2 12.3 44.5 0l22.2-22.2c12.3-12.3 12.3-32.2 0-44.5z"/>
</svg>