<svg version="1.2" xmlns="http://www.w3.org/2000/svg" viewBox="0 0 512 512" width="512" height="512">
	<title>my-location-icon</title>
	<style>
		.s0 { fill: #e7e7eb } 
	</style>
	<path id="Layer" fill-rule="evenodd" class="s0" d="m256 0c9.7 0 17.7 7.2 18.9 16.6l0.4 2.7-0.2 45.7c90.8 8.9 163 81.1 171.9 171.9l1-0.2h44.7c10.8 0 19.3 8.7 19.3 19.3 0 9.7-7.2 17.7-16.6 18.9l-2.7 0.2h-45.7c-8.9 90.8-81.1 163-171.9 171.9l0.2 1v44.7c0 10.8-8.7 19.3-19.3 19.3-9.7 0-17.7-7.2-18.9-16.6l-0.2-2.7v-45.7c-90.8-8.9-163-81.1-171.9-171.9h-45.7c-10.8 0-19.3-8.5-19.3-19.1 0-9.7 7.2-17.7 16.6-18.9l2.7-0.4 45.7 0.2c8.9-90.8 81.1-163 171.9-171.9v-45.9c0-10.6 8.5-19.1 19.1-19.1zm153.6 256c0-84.9-68.7-153.6-153.6-153.6-84.9 0-153.6 68.7-153.6 153.6 0 84.9 68.7 153.6 153.6 153.6 84.9 0 153.6-68.7 153.6-153.6zm-153.6 102.4c-56.6 0-102.4-45.8-102.4-102.4 0-56.6 45.8-102.4 102.4-102.4 56.6 0 102.4 45.8 102.4 102.4 0 56.6-45.8 102.4-102.4 102.4z"/>
</svg>